<?xml version="1.0" encoding="UTF-8" standalone="no"?>
<!DOCTYPE svg PUBLIC "-//W3C//DTD SVG 1.1//EN"
 "http://www.w3.org/Graphics/SVG/1.1/DTD/svg11.dtd">
<!-- Generated by graphviz version 2.36.0 (20140111.2315)
 -->
<!-- Title: %3 Pages: 1 -->
<svg width="195pt" height="193pt"
 viewBox="0.00 0.00 194.53 193.09" xmlns="http://www.w3.org/2000/svg" xmlns:xlink="http://www.w3.org/1999/xlink">
<g id="graph0" class="graph" transform="scale(1 1) rotate(0) translate(4 189.092)">
<title>%3</title>
<polygon fill="white" stroke="none" points="-4,4 -4,-189.092 190.53,-189.092 190.53,4 -4,4"/>
<!-- 1 -->
<g id="node1" class="node"><title>1</title>
<path fill="none" stroke="grey" stroke-width="0.5" d="M14.3391,-30.2638C14.3391,-30.2638 4.44169,-30.2638 4.44169,-30.2638 2.27502,-30.2638 0.108354,-28.0971 0.108354,-25.9304 0.108354,-25.9304 0.108354,-21.5971 0.108354,-21.5971 0.108354,-19.4304 2.27502,-17.2638 4.44169,-17.2638 4.44169,-17.2638 14.3391,-17.2638 14.3391,-17.2638 16.5057,-17.2638 18.6724,-19.4304 18.6724,-21.5971 18.6724,-21.5971 18.6724,-25.9304 18.6724,-25.9304 18.6724,-28.0971 16.5057,-30.2638 14.3391,-30.2638"/>
<text text-anchor="middle" x="9.39038" y="-22.2638" font-family="Helvetica,sans-Serif" font-size="5.00" fill="grey">1</text>
</g>
<!-- 2 -->
<g id="node2" class="node"><title>2</title>
<path fill="none" stroke="grey" stroke-width="0.5" d="M106.523,-13C106.523,-13 96.6251,-13 96.6251,-13 94.4585,-13 92.2918,-10.8333 92.2918,-8.66667 92.2918,-8.66667 92.2918,-4.33333 92.2918,-4.33333 92.2918,-2.16667 94.4585,-0 96.6251,-0 96.6251,-0 106.523,-0 106.523,-0 108.689,-0 110.856,-2.16667 110.856,-4.33333 110.856,-4.33333 110.856,-8.66667 110.856,-8.66667 110.856,-10.8333 108.689,-13 106.523,-13"/>
<text text-anchor="middle" x="101.574" y="-5" font-family="Helvetica,sans-Serif" font-size="5.00" fill="grey">2</text>
</g>
<!-- 1&#45;&#45;2 -->
<g id="edge1" class="edge"><title>1&#45;&#45;2</title>
<path fill="none" stroke="grey" stroke-width="0.5" d="M18.9084,-21.9813C36.665,-18.6559 74.6329,-11.5454 92.2448,-8.24709"/>
</g>
<!-- 9 -->
<g id="node7" class="node"><title>9</title>
<path fill="none" stroke="black" stroke-width="0.5" d="M53.9251,-61.1194C53.9251,-61.1194 44.0277,-61.1194 44.0277,-61.1194 41.8611,-61.1194 39.6944,-58.9528 39.6944,-56.7861 39.6944,-56.7861 39.6944,-52.4528 39.6944,-52.4528 39.6944,-50.2861 41.8611,-48.1194 44.0277,-48.1194 44.0277,-48.1194 53.9251,-48.1194 53.9251,-48.1194 56.0918,-48.1194 58.2585,-50.2861 58.2585,-52.4528 58.2585,-52.4528 58.2585,-56.7861 58.2585,-56.7861 58.2585,-58.9528 56.0918,-61.1194 53.9251,-61.1194"/>
<text text-anchor="middle" x="48.9764" y="-53.1194" font-family="Helvetica,sans-Serif" font-size="5.00">9</text>
</g>
<!-- 1&#45;&#45;9 -->
<g id="edge7" class="edge"><title>1&#45;&#45;9</title>
<path fill="none" stroke="black" stroke-width="0.5" stroke-dasharray="1,5" d="M17.7856,-30.3075C24.5034,-35.5438 33.8787,-42.8514 40.5933,-48.0852"/>
</g>
<!-- 3 -->
<g id="node3" class="node"><title>3</title>
<path fill="none" stroke="grey" stroke-width="0.5" d="M182.088,-76.1879C182.088,-76.1879 172.191,-76.1879 172.191,-76.1879 170.024,-76.1879 167.857,-74.0213 167.857,-71.8546 167.857,-71.8546 167.857,-67.5213 167.857,-67.5213 167.857,-65.3546 170.024,-63.1879 172.191,-63.1879 172.191,-63.1879 182.088,-63.1879 182.088,-63.1879 184.255,-63.1879 186.422,-65.3546 186.422,-67.5213 186.422,-67.5213 186.422,-71.8546 186.422,-71.8546 186.422,-74.0213 184.255,-76.1879 182.088,-76.1879"/>
<text text-anchor="middle" x="177.139" y="-68.1879" font-family="Helvetica,sans-Serif" font-size="5.00" fill="grey">3</text>
</g>
<!-- 2&#45;&#45;3 -->
<g id="edge2" class="edge"><title>2&#45;&#45;3</title>
<path fill="none" stroke="grey" stroke-width="0.5" d="M109.376,-13.0242C123.856,-25.1325 154.733,-50.9517 169.266,-63.1045"/>
</g>
<!-- 2&#45;&#45;9 -->
<g id="edge8" class="edge"><title>2&#45;&#45;9</title>
<path fill="none" stroke="black" stroke-width="0.5" stroke-dasharray="1,5" d="M94.2604,-13.1908C84.2115,-22.3842 66.2439,-38.8221 56.2278,-47.9855"/>
</g>
<!-- 8 -->
<g id="node8" class="node"><title>8</title>
<path fill="none" stroke="black" stroke-width="0.5" d="M123.56,-69.4049C123.56,-69.4049 113.663,-69.4049 113.663,-69.4049 111.496,-69.4049 109.329,-67.2382 109.329,-65.0716 109.329,-65.0716 109.329,-60.7382 109.329,-60.7382 109.329,-58.5716 111.496,-56.4049 113.663,-56.4049 113.663,-56.4049 123.56,-56.4049 123.56,-56.4049 125.727,-56.4049 127.894,-58.5716 127.894,-60.7382 127.894,-60.7382 127.894,-65.0716 127.894,-65.0716 127.894,-67.2382 125.727,-69.4049 123.56,-69.4049"/>
<text text-anchor="middle" x="118.612" y="-61.4049" font-family="Helvetica,sans-Serif" font-size="5.00">8</text>
</g>
<!-- 2&#45;&#45;8 -->
<g id="edge9" class="edge"><title>2&#45;&#45;8</title>
<path fill="none" stroke="black" stroke-width="0.5" stroke-dasharray="1,5" d="M103.663,-13.4163C106.969,-24.3596 113.362,-45.5256 116.611,-56.2826"/>
</g>
<!-- 4 -->
<g id="node4" class="node"><title>4</title>
<path fill="none" stroke="grey" stroke-width="0.5" d="M181.406,-169.973C181.406,-169.973 171.508,-169.973 171.508,-169.973 169.342,-169.973 167.175,-167.807 167.175,-165.64 167.175,-165.64 167.175,-161.307 167.175,-161.307 167.175,-159.14 169.342,-156.973 171.508,-156.973 171.508,-156.973 181.406,-156.973 181.406,-156.973 183.572,-156.973 185.739,-159.14 185.739,-161.307 185.739,-161.307 185.739,-165.64 185.739,-165.64 185.739,-167.807 183.572,-169.973 181.406,-169.973"/>
<text text-anchor="middle" x="176.457" y="-161.973" font-family="Helvetica,sans-Serif" font-size="5.00" fill="grey">4</text>
</g>
<!-- 3&#45;&#45;4 -->
<g id="edge3" class="edge"><title>3&#45;&#45;4</title>
<path fill="none" stroke="grey" stroke-width="0.5" d="M177.09,-76.4327C176.965,-93.7369 176.631,-139.553 176.506,-156.79"/>
</g>
<!-- 3&#45;&#45;8 -->
<g id="edge10" class="edge"><title>3&#45;&#45;8</title>
<path fill="none" stroke="black" stroke-width="0.5" stroke-dasharray="1,5" d="M167.736,-68.5981C156.879,-67.3398 139.115,-65.2812 128.186,-64.0146"/>
</g>
<!-- 7 -->
<g id="node9" class="node"><title>7</title>
<path fill="none" stroke="black" stroke-width="0.5" d="M144.038,-136.473C144.038,-136.473 134.14,-136.473 134.14,-136.473 131.974,-136.473 129.807,-134.306 129.807,-132.14 129.807,-132.14 129.807,-127.806 129.807,-127.806 129.807,-125.64 131.974,-123.473 134.14,-123.473 134.14,-123.473 144.038,-123.473 144.038,-123.473 146.204,-123.473 148.371,-125.64 148.371,-127.806 148.371,-127.806 148.371,-132.14 148.371,-132.14 148.371,-134.306 146.204,-136.473 144.038,-136.473"/>
<text text-anchor="middle" x="139.089" y="-128.473" font-family="Helvetica,sans-Serif" font-size="5.00">7</text>
</g>
<!-- 3&#45;&#45;7 -->
<g id="edge11" class="edge"><title>3&#45;&#45;7</title>
<path fill="none" stroke="black" stroke-width="0.5" stroke-dasharray="1,5" d="M172.775,-76.6034C165.435,-88.2321 150.708,-111.564 143.403,-123.138"/>
</g>
<!-- 5 -->
<g id="node5" class="node"><title>5</title>
<path fill="none" stroke="grey" stroke-width="0.5" d="M90.1348,-185.092C90.1348,-185.092 80.2374,-185.092 80.2374,-185.092 78.0707,-185.092 75.9041,-182.925 75.9041,-180.759 75.9041,-180.759 75.9041,-176.425 75.9041,-176.425 75.9041,-174.259 78.0707,-172.092 80.2374,-172.092 80.2374,-172.092 90.1348,-172.092 90.1348,-172.092 92.3014,-172.092 94.4681,-174.259 94.4681,-176.425 94.4681,-176.425 94.4681,-180.759 94.4681,-180.759 94.4681,-182.925 92.3014,-185.092 90.1348,-185.092"/>
<text text-anchor="middle" x="85.1861" y="-177.092" font-family="Helvetica,sans-Serif" font-size="5.00" fill="grey">5</text>
</g>
<!-- 4&#45;&#45;5 -->
<g id="edge4" class="edge"><title>4&#45;&#45;5</title>
<path fill="none" stroke="grey" stroke-width="0.5" d="M167.033,-165.034C149.544,-167.931 112.249,-174.109 94.6954,-177.017"/>
</g>
<!-- 4&#45;&#45;7 -->
<g id="edge12" class="edge"><title>4&#45;&#45;7</title>
<path fill="none" stroke="black" stroke-width="0.5" stroke-dasharray="1,5" d="M168.895,-156.694C162.327,-150.805 152.875,-142.332 146.385,-136.514"/>
</g>
<!-- 6 -->
<g id="node6" class="node"><title>6</title>
<path fill="none" stroke="grey" stroke-width="0.5" d="M15.6123,-122.771C15.6123,-122.771 5.71493,-122.771 5.71493,-122.771 3.54826,-122.771 1.38159,-120.604 1.38159,-118.438 1.38159,-118.438 1.38159,-114.104 1.38159,-114.104 1.38159,-111.938 3.54826,-109.771 5.71493,-109.771 5.71493,-109.771 15.6123,-109.771 15.6123,-109.771 17.779,-109.771 19.9456,-111.938 19.9456,-114.104 19.9456,-114.104 19.9456,-118.438 19.9456,-118.438 19.9456,-120.604 17.779,-122.771 15.6123,-122.771"/>
<text text-anchor="middle" x="10.6636" y="-114.771" font-family="Helvetica,sans-Serif" font-size="5.00" fill="grey">6</text>
</g>
<!-- 5&#45;&#45;6 -->
<g id="edge5" class="edge"><title>5&#45;&#45;6</title>
<path fill="none" stroke="grey" stroke-width="0.5" d="M77.2109,-171.923C62.9425,-159.99 33.1967,-135.115 18.8074,-123.081"/>
</g>
<!-- 5&#45;&#45;7 -->
<g id="edge13" class="edge"><title>5&#45;&#45;7</title>
<path fill="none" stroke="black" stroke-width="0.5" stroke-dasharray="1,5" d="M92.6811,-171.832C102.979,-162.543 121.393,-145.934 131.658,-136.676"/>
</g>
<!-- 10 -->
<g id="node10" class="node"><title>10</title>
<path fill="none" stroke="black" stroke-width="0.5" d="M76.256,-127.509C76.256,-127.509 63.7908,-127.509 63.7908,-127.509 61.6242,-127.509 59.4575,-125.342 59.4575,-123.176 59.4575,-123.176 59.4575,-118.842 59.4575,-118.842 59.4575,-116.676 61.6242,-114.509 63.7908,-114.509 63.7908,-114.509 76.256,-114.509 76.256,-114.509 78.4226,-114.509 80.5893,-116.676 80.5893,-118.842 80.5893,-118.842 80.5893,-123.176 80.5893,-123.176 80.5893,-125.342 78.4226,-127.509 76.256,-127.509"/>
<text text-anchor="middle" x="70.0234" y="-119.509" font-family="Helvetica,sans-Serif" font-size="5.00">10</text>
</g>
<!-- 5&#45;&#45;10 -->
<g id="edge14" class="edge"><title>5&#45;&#45;10</title>
<path fill="none" stroke="black" stroke-width="0.5" stroke-dasharray="1,5" d="M83.4467,-171.986C80.5219,-160.879 74.6536,-138.593 71.7425,-127.538"/>
</g>
<!-- 6&#45;&#45;1 -->
<g id="edge6" class="edge"><title>6&#45;&#45;1</title>
<path fill="none" stroke="grey" stroke-width="0.5" d="M10.5721,-109.618C10.3371,-92.5498 9.71513,-47.3582 9.48112,-30.3564"/>
</g>
<!-- 6&#45;&#45;9 -->
<g id="edge15" class="edge"><title>6&#45;&#45;9</title>
<path fill="none" stroke="black" stroke-width="0.5" stroke-dasharray="1,5" d="M14.7638,-109.673C22.0993,-97.8691 37.3919,-73.2608 44.7896,-61.3567"/>
</g>
<!-- 6&#45;&#45;10 -->
<g id="edge16" class="edge"><title>6&#45;&#45;10</title>
<path fill="none" stroke="black" stroke-width="0.5" stroke-dasharray="1,5" d="M20.2008,-117.032C30.8192,-117.88 47.9502,-119.247 59.0992,-120.137"/>
</g>
<!-- 9&#45;&#45;10 -->
<g id="edge21" class="edge"><title>9&#45;&#45;10</title>
<path fill="none" stroke="black" stroke-width="2" d="M51.0714,-61.2279C55.1057,-73.9534 63.9093,-101.723 67.9369,-114.427"/>
</g>
<!-- 8&#45;&#45;9 -->
<g id="edge19" class="edge"><title>8&#45;&#45;9</title>
<path fill="none" stroke="black" stroke-width="2" d="M109.22,-61.7875C96.0041,-60.215 72.0412,-57.3638 58.6658,-55.7723"/>
</g>
<!-- 8&#45;&#45;10 -->
<g id="edge20" class="edge"><title>8&#45;&#45;10</title>
<path fill="none" stroke="black" stroke-width="2" d="M113.038,-69.5702C103.665,-80.7783 84.8607,-103.266 75.5321,-114.422"/>
</g>
<!-- 7&#45;&#45;8 -->
<g id="edge17" class="edge"><title>7&#45;&#45;8</title>
<path fill="none" stroke="black" stroke-width="2" d="M137.051,-123.297C133.126,-110.441 124.56,-82.3881 120.642,-69.5538"/>
</g>
<!-- 7&#45;&#45;10 -->
<g id="edge18" class="edge"><title>7&#45;&#45;10</title>
<path fill="none" stroke="black" stroke-width="2" d="M129.775,-128.764C117.108,-127.12 94.4897,-124.185 81.01,-122.435"/>
</g>
</g>
</svg>
