<?xml version="1.0" encoding="UTF-8" standalone="no"?>
<!DOCTYPE svg PUBLIC "-//W3C//DTD SVG 1.1//EN"
 "http://www.w3.org/Graphics/SVG/1.1/DTD/svg11.dtd">
<!-- Generated by graphviz version 2.40.1 (20161225.0304)
 -->
<!-- Title: Property7 Pages: 1 -->
<svg width="152pt" height="148pt"
 viewBox="0.00 0.00 152.24 148.20" xmlns="http://www.w3.org/2000/svg" xmlns:xlink="http://www.w3.org/1999/xlink">
<g id="graph0" class="graph" transform="scale(1 1) rotate(0) translate(4 144.2012)">
<title>Property7</title>
<polygon fill="#ffffff" stroke="transparent" points="-4,4 -4,-144.2012 148.2409,-144.2012 148.2409,4 -4,4"/>
<!-- i -->
<g id="node1" class="node">
<title>i</title>
<ellipse fill="none" stroke="#000000" cx="27" cy="-18" rx="27" ry="18"/>
<text text-anchor="middle" x="27" y="-13.8" font-family="Times,serif" font-size="14.00" fill="#000000">i</text>
</g>
<!-- k -->
<g id="node2" class="node">
<title>k</title>
<ellipse fill="none" stroke="#000000" cx="27" cy="-122.2012" rx="27" ry="18"/>
<text text-anchor="middle" x="27" y="-118.0012" font-family="Times,serif" font-size="14.00" fill="#000000">k</text>
</g>
<!-- i&#45;&gt;k -->
<g id="edge1" class="edge">
<title>i&#45;&gt;k</title>
<path fill="none" stroke="#000000" d="M21.783,-35.6763C20.0689,-51.7688 19.7923,-75.7922 20.953,-94.4451"/>
<polygon fill="#000000" stroke="#000000" points="17.4668,-94.7583 21.7738,-104.4381 24.4433,-94.1851 17.4668,-94.7583"/>
<text text-anchor="middle" x="17.6732" y="-67.8607" font-family="Times,serif" font-size="14.00" fill="#000000">j </text>
</g>
<!-- m -->
<g id="node3" class="node">
<title>m</title>
<ellipse fill="none" stroke="#000000" cx="117.2409" cy="-70.1006" rx="27" ry="18"/>
<text text-anchor="middle" x="117.2409" y="-65.9006" font-family="Times,serif" font-size="14.00" fill="#000000">m</text>
</g>
<!-- i&#45;&gt;m -->
<g id="edge2" class="edge">
<title>i&#45;&gt;m</title>
<path fill="none" stroke="#000000" d="M47.477,-29.8224C59.3919,-36.7015 74.614,-45.49 87.7971,-53.1012"/>
<polygon fill="#000000" stroke="#000000" points="86.1222,-56.1756 96.5325,-58.1446 89.6222,-50.1134 86.1222,-56.1756"/>
<text text-anchor="middle" x="58.2445" y="-44.2618" font-family="Times,serif" font-size="14.00" fill="#000000">j+1</text>
</g>
<!-- k&#45;&gt;i -->
<g id="edge4" class="edge">
<title>k&#45;&gt;i</title>
<path fill="none" stroke="#000000" d="M32.217,-104.5249C33.9311,-88.4324 34.2077,-64.409 33.047,-45.7561"/>
<polygon fill="#000000" stroke="#000000" points="36.5332,-45.4429 32.2262,-35.763 29.5567,-46.016 36.5332,-45.4429"/>
<text text-anchor="middle" x="45.3298" y="-77.9405" font-family="Times,serif" font-size="14.00" fill="#000000"> p+1</text>
</g>
<!-- k&#45;&gt;m -->
<g id="edge3" class="edge">
<title>k&#45;&gt;m</title>
<path fill="none" stroke="#000000" d="M47.477,-110.3787C59.3919,-103.4997 74.614,-94.7112 87.7971,-87.0999"/>
<polygon fill="#000000" stroke="#000000" points="89.6222,-90.0877 96.5325,-82.0566 86.1222,-84.0255 89.6222,-90.0877"/>
<text text-anchor="middle" x="74.6371" y="-101.5393" font-family="Times,serif" font-size="14.00" fill="#000000"> &#160;p</text>
</g>
</g>
</svg>
